<mxfile host="app.diagrams.net" modified="2022-03-17T13:53:38.805Z" agent="5.0 (Windows NT 10.0; Win64; x64) AppleWebKit/537.36 (KHTML, like Gecko) Chrome/99.0.4844.74 Safari/537.36" etag="zsyX34kPHGj8-gqCPD81" version="17.1.3" type="github">
  <diagram id="C5RBs43oDa-KdzZeNtuy" name="Page-1">
    <mxGraphModel dx="868" dy="482" grid="1" gridSize="10" guides="1" tooltips="1" connect="1" arrows="1" fold="1" page="1" pageScale="1" pageWidth="827" pageHeight="1169" math="0" shadow="0">
      <root>
        <mxCell id="WIyWlLk6GJQsqaUBKTNV-0" />
        <mxCell id="WIyWlLk6GJQsqaUBKTNV-1" parent="WIyWlLk6GJQsqaUBKTNV-0" />
        <mxCell id="hC8JRbi2zZzbLlYq-3mH-0" value="Inicio" style="rounded=1;whiteSpace=wrap;html=1;" vertex="1" parent="WIyWlLk6GJQsqaUBKTNV-1">
          <mxGeometry x="60" y="40" width="120" height="60" as="geometry" />
        </mxCell>
        <mxCell id="hC8JRbi2zZzbLlYq-3mH-1" value="Fim" style="rounded=1;whiteSpace=wrap;html=1;" vertex="1" parent="WIyWlLk6GJQsqaUBKTNV-1">
          <mxGeometry x="480" y="430" width="120" height="60" as="geometry" />
        </mxCell>
        <mxCell id="hC8JRbi2zZzbLlYq-3mH-2" value="&amp;nbsp;numero 1" style="shape=parallelogram;perimeter=parallelogramPerimeter;whiteSpace=wrap;html=1;fixedSize=1;" vertex="1" parent="WIyWlLk6GJQsqaUBKTNV-1">
          <mxGeometry x="60" y="180" width="120" height="60" as="geometry" />
        </mxCell>
        <mxCell id="hC8JRbi2zZzbLlYq-3mH-3" value="Numero 3" style="shape=document;whiteSpace=wrap;html=1;boundedLbl=1;" vertex="1" parent="WIyWlLk6GJQsqaUBKTNV-1">
          <mxGeometry x="280" y="420" width="120" height="80" as="geometry" />
        </mxCell>
        <mxCell id="hC8JRbi2zZzbLlYq-3mH-4" value="Numero 3 = Numero 1 + Numero 2" style="rounded=0;whiteSpace=wrap;html=1;" vertex="1" parent="WIyWlLk6GJQsqaUBKTNV-1">
          <mxGeometry x="40" y="430" width="140" height="60" as="geometry" />
        </mxCell>
        <mxCell id="hC8JRbi2zZzbLlYq-3mH-6" value="DecisÃ£o" style="rhombus;whiteSpace=wrap;html=1;" vertex="1" parent="WIyWlLk6GJQsqaUBKTNV-1">
          <mxGeometry x="740" y="110" width="80" height="80" as="geometry" />
        </mxCell>
        <mxCell id="hC8JRbi2zZzbLlYq-3mH-7" value="Processamento" style="rounded=1;whiteSpace=wrap;html=1;" vertex="1" parent="WIyWlLk6GJQsqaUBKTNV-1">
          <mxGeometry x="460" y="50" width="120" height="60" as="geometry" />
        </mxCell>
        <mxCell id="hC8JRbi2zZzbLlYq-3mH-9" value="" style="shape=flexArrow;endArrow=classic;startArrow=classic;html=1;rounded=0;" edge="1" parent="WIyWlLk6GJQsqaUBKTNV-1">
          <mxGeometry width="100" height="100" relative="1" as="geometry">
            <mxPoint x="120" y="180" as="sourcePoint" />
            <mxPoint x="119.5" y="100" as="targetPoint" />
          </mxGeometry>
        </mxCell>
        <mxCell id="hC8JRbi2zZzbLlYq-3mH-11" value="" style="shape=flexArrow;endArrow=classic;startArrow=classic;html=1;rounded=0;" edge="1" parent="WIyWlLk6GJQsqaUBKTNV-1">
          <mxGeometry width="100" height="100" relative="1" as="geometry">
            <mxPoint x="119.5" y="310" as="sourcePoint" />
            <mxPoint x="119.5" y="240" as="targetPoint" />
            <Array as="points">
              <mxPoint x="119.5" y="300" />
            </Array>
          </mxGeometry>
        </mxCell>
        <mxCell id="hC8JRbi2zZzbLlYq-3mH-14" value="" style="shape=flexArrow;endArrow=classic;startArrow=classic;html=1;rounded=0;" edge="1" parent="WIyWlLk6GJQsqaUBKTNV-1">
          <mxGeometry width="100" height="100" relative="1" as="geometry">
            <mxPoint x="119.5" y="430" as="sourcePoint" />
            <mxPoint x="119.5" y="370" as="targetPoint" />
          </mxGeometry>
        </mxCell>
        <mxCell id="hC8JRbi2zZzbLlYq-3mH-15" value="" style="shape=flexArrow;endArrow=classic;startArrow=classic;html=1;rounded=0;" edge="1" parent="WIyWlLk6GJQsqaUBKTNV-1">
          <mxGeometry width="100" height="100" relative="1" as="geometry">
            <mxPoint x="190" y="459.5" as="sourcePoint" />
            <mxPoint x="270" y="459.5" as="targetPoint" />
            <Array as="points">
              <mxPoint x="260" y="459.5" />
            </Array>
          </mxGeometry>
        </mxCell>
        <mxCell id="hC8JRbi2zZzbLlYq-3mH-18" value="" style="shape=flexArrow;endArrow=classic;startArrow=classic;html=1;rounded=0;" edge="1" parent="WIyWlLk6GJQsqaUBKTNV-1">
          <mxGeometry width="100" height="100" relative="1" as="geometry">
            <mxPoint x="400" y="459.5" as="sourcePoint" />
            <mxPoint x="470" y="459.5" as="targetPoint" />
          </mxGeometry>
        </mxCell>
        <mxCell id="hC8JRbi2zZzbLlYq-3mH-19" value="Numero 2" style="shape=parallelogram;perimeter=parallelogramPerimeter;whiteSpace=wrap;html=1;fixedSize=1;" vertex="1" parent="WIyWlLk6GJQsqaUBKTNV-1">
          <mxGeometry x="50" y="310" width="120" height="60" as="geometry" />
        </mxCell>
        <mxCell id="hC8JRbi2zZzbLlYq-3mH-24" style="edgeStyle=orthogonalEdgeStyle;rounded=0;orthogonalLoop=1;jettySize=auto;html=1;" edge="1" parent="WIyWlLk6GJQsqaUBKTNV-1" source="hC8JRbi2zZzbLlYq-3mH-20">
          <mxGeometry relative="1" as="geometry">
            <mxPoint x="180" y="650" as="targetPoint" />
          </mxGeometry>
        </mxCell>
        <mxCell id="hC8JRbi2zZzbLlYq-3mH-20" value="Inicio" style="rounded=1;whiteSpace=wrap;html=1;" vertex="1" parent="WIyWlLk6GJQsqaUBKTNV-1">
          <mxGeometry x="120" y="555" width="120" height="60" as="geometry" />
        </mxCell>
        <mxCell id="hC8JRbi2zZzbLlYq-3mH-25" style="edgeStyle=orthogonalEdgeStyle;rounded=0;orthogonalLoop=1;jettySize=auto;html=1;" edge="1" parent="WIyWlLk6GJQsqaUBKTNV-1" source="hC8JRbi2zZzbLlYq-3mH-21">
          <mxGeometry relative="1" as="geometry">
            <mxPoint x="170" y="750" as="targetPoint" />
          </mxGeometry>
        </mxCell>
        <mxCell id="hC8JRbi2zZzbLlYq-3mH-21" value="Numero 1" style="shape=parallelogram;perimeter=parallelogramPerimeter;whiteSpace=wrap;html=1;fixedSize=1;" vertex="1" parent="WIyWlLk6GJQsqaUBKTNV-1">
          <mxGeometry x="110" y="650" width="120" height="60" as="geometry" />
        </mxCell>
        <mxCell id="hC8JRbi2zZzbLlYq-3mH-28" style="edgeStyle=orthogonalEdgeStyle;rounded=0;orthogonalLoop=1;jettySize=auto;html=1;" edge="1" parent="WIyWlLk6GJQsqaUBKTNV-1" source="hC8JRbi2zZzbLlYq-3mH-26" target="hC8JRbi2zZzbLlYq-3mH-29">
          <mxGeometry relative="1" as="geometry">
            <mxPoint x="270" y="780" as="targetPoint" />
          </mxGeometry>
        </mxCell>
        <mxCell id="hC8JRbi2zZzbLlYq-3mH-26" value="Numero 2" style="shape=parallelogram;perimeter=parallelogramPerimeter;whiteSpace=wrap;html=1;fixedSize=1;" vertex="1" parent="WIyWlLk6GJQsqaUBKTNV-1">
          <mxGeometry x="100" y="750" width="135" height="60" as="geometry" />
        </mxCell>
        <mxCell id="hC8JRbi2zZzbLlYq-3mH-33" value="Verdadeiro" style="edgeStyle=orthogonalEdgeStyle;rounded=0;orthogonalLoop=1;jettySize=auto;html=1;" edge="1" parent="WIyWlLk6GJQsqaUBKTNV-1" source="hC8JRbi2zZzbLlYq-3mH-29">
          <mxGeometry relative="1" as="geometry">
            <mxPoint x="480" y="780" as="targetPoint" />
          </mxGeometry>
        </mxCell>
        <mxCell id="hC8JRbi2zZzbLlYq-3mH-35" value="Falso" style="edgeStyle=orthogonalEdgeStyle;rounded=0;orthogonalLoop=1;jettySize=auto;html=1;" edge="1" parent="WIyWlLk6GJQsqaUBKTNV-1" source="hC8JRbi2zZzbLlYq-3mH-29">
          <mxGeometry relative="1" as="geometry">
            <mxPoint x="360" y="870" as="targetPoint" />
          </mxGeometry>
        </mxCell>
        <mxCell id="hC8JRbi2zZzbLlYq-3mH-29" value="N1 &amp;gt; N2 = ?" style="rhombus;whiteSpace=wrap;html=1;" vertex="1" parent="WIyWlLk6GJQsqaUBKTNV-1">
          <mxGeometry x="270" y="690" width="90" height="80" as="geometry" />
        </mxCell>
        <mxCell id="hC8JRbi2zZzbLlYq-3mH-40" style="edgeStyle=orthogonalEdgeStyle;rounded=0;orthogonalLoop=1;jettySize=auto;html=1;" edge="1" parent="WIyWlLk6GJQsqaUBKTNV-1" source="hC8JRbi2zZzbLlYq-3mH-34">
          <mxGeometry relative="1" as="geometry">
            <mxPoint x="540" y="880" as="targetPoint" />
          </mxGeometry>
        </mxCell>
        <mxCell id="hC8JRbi2zZzbLlYq-3mH-34" value="N1 maior que N2" style="shape=document;whiteSpace=wrap;html=1;boundedLbl=1;" vertex="1" parent="WIyWlLk6GJQsqaUBKTNV-1">
          <mxGeometry x="480" y="740" width="120" height="80" as="geometry" />
        </mxCell>
        <mxCell id="hC8JRbi2zZzbLlYq-3mH-37" style="edgeStyle=orthogonalEdgeStyle;rounded=0;orthogonalLoop=1;jettySize=auto;html=1;" edge="1" parent="WIyWlLk6GJQsqaUBKTNV-1" source="hC8JRbi2zZzbLlYq-3mH-36">
          <mxGeometry relative="1" as="geometry">
            <mxPoint x="490" y="930" as="targetPoint" />
            <Array as="points">
              <mxPoint x="470" y="990" />
              <mxPoint x="470" y="930" />
            </Array>
          </mxGeometry>
        </mxCell>
        <mxCell id="hC8JRbi2zZzbLlYq-3mH-36" value="N1 menor que N2" style="shape=document;whiteSpace=wrap;html=1;boundedLbl=1;" vertex="1" parent="WIyWlLk6GJQsqaUBKTNV-1">
          <mxGeometry x="300" y="960" width="120" height="80" as="geometry" />
        </mxCell>
        <mxCell id="hC8JRbi2zZzbLlYq-3mH-39" value="Fim" style="rounded=1;whiteSpace=wrap;html=1;" vertex="1" parent="WIyWlLk6GJQsqaUBKTNV-1">
          <mxGeometry x="500" y="900" width="120" height="60" as="geometry" />
        </mxCell>
        <mxCell id="hC8JRbi2zZzbLlYq-3mH-45" value="Falso" style="edgeStyle=orthogonalEdgeStyle;rounded=0;orthogonalLoop=1;jettySize=auto;html=1;" edge="1" parent="WIyWlLk6GJQsqaUBKTNV-1" source="hC8JRbi2zZzbLlYq-3mH-41">
          <mxGeometry relative="1" as="geometry">
            <mxPoint x="260" y="910" as="targetPoint" />
          </mxGeometry>
        </mxCell>
        <mxCell id="hC8JRbi2zZzbLlYq-3mH-47" value="Verdadeiro" style="edgeStyle=orthogonalEdgeStyle;rounded=0;orthogonalLoop=1;jettySize=auto;html=1;exitX=1;exitY=0.5;exitDx=0;exitDy=0;entryX=1;entryY=0.125;entryDx=0;entryDy=0;entryPerimeter=0;" edge="1" parent="WIyWlLk6GJQsqaUBKTNV-1" source="hC8JRbi2zZzbLlYq-3mH-41" target="hC8JRbi2zZzbLlYq-3mH-36">
          <mxGeometry x="-0.2857" y="-10" relative="1" as="geometry">
            <mxPoint x="430" y="950" as="targetPoint" />
            <Array as="points">
              <mxPoint x="430" y="910" />
              <mxPoint x="430" y="930" />
              <mxPoint x="450" y="930" />
              <mxPoint x="450" y="950" />
              <mxPoint x="420" y="950" />
            </Array>
            <mxPoint x="-10" y="-10" as="offset" />
          </mxGeometry>
        </mxCell>
        <mxCell id="hC8JRbi2zZzbLlYq-3mH-41" value="N1 &amp;lt; N2=?" style="rhombus;whiteSpace=wrap;html=1;" vertex="1" parent="WIyWlLk6GJQsqaUBKTNV-1">
          <mxGeometry x="320" y="870" width="80" height="80" as="geometry" />
        </mxCell>
        <mxCell id="hC8JRbi2zZzbLlYq-3mH-49" style="edgeStyle=orthogonalEdgeStyle;rounded=0;orthogonalLoop=1;jettySize=auto;html=1;entryX=0.5;entryY=1;entryDx=0;entryDy=0;" edge="1" parent="WIyWlLk6GJQsqaUBKTNV-1" source="hC8JRbi2zZzbLlYq-3mH-46" target="hC8JRbi2zZzbLlYq-3mH-39">
          <mxGeometry relative="1" as="geometry">
            <Array as="points">
              <mxPoint x="200" y="1110" />
              <mxPoint x="560" y="1110" />
            </Array>
          </mxGeometry>
        </mxCell>
        <mxCell id="hC8JRbi2zZzbLlYq-3mH-46" value="N1 = N2" style="shape=document;whiteSpace=wrap;html=1;boundedLbl=1;" vertex="1" parent="WIyWlLk6GJQsqaUBKTNV-1">
          <mxGeometry x="140" y="880" width="120" height="80" as="geometry" />
        </mxCell>
      </root>
    </mxGraphModel>
  </diagram>
</mxfile>
